 http://img405.imageshack.us/img405/7381/super8c.jpg


Verenigde Staten
Sciencefiction
112 minuten

geregisseerd door J.J. Abrams
met Joel Courtney, Elle Fanning en Kyle Chandler

In de zomer van 1979 sluit de Amerikaanse Luchtmacht een sectie van Area 51. Alle materialen worden per trein vervoerd naar een opslagplaats in Ohio. De trein wordt echter aangereden door een truck en ontspoort. Een groepje kinderen, dat bezig is om hun eigen zombie-film te maken met hun 'Super 8' camera, stuit op de ravage. Al snel wordt vermoed dat het niet om een ongeluk gaat, als er plotseling verdwijningen plaatsvinden en onverklaarbare dingen gebeuren. Een lokale sheriff probeert het mysterie te ontrafelen, maar wil hij de angstaanjagende en onmenselijke waarheid wel weten?


Vertaald door Simply ReleaseS Toppers
Winchester Girl, Heksje en Jesprulin






Screenshots:
 
http://img580.imageshack.us/img580/8686/screenshot1rd.jpg
 
http://img833.imageshack.us/img833/5469/screenshot2oep.jpg
 
http://img804.imageshack.us/img804/452/screenshot3d.jpg
 
http://img11.imageshack.us/img11/8193/screenshot4hd.jpg





INFO;

Video
ID                                       : 0
Format                                   : MPEG-4 Visual
Format profile                           : Advanced Simple@L5
Format settings, BVOP                    : 1
Format settings, QPel                    : No
Format settings, GMC                     : No warppoints
Format settings, Matrix                  : Custom
Codec ID                                 : XVID
Codec ID/Hint                            : XviD
Duration                                 : 1h 51mn
Bit rate                                 : 749 Kbps
Width                                    : 608 pixels
Height                                   : 256 pixels
Display aspect ratio                     : 2.40:1
Frame rate                               : 23.976 fps
Color space                              : YUV
Chroma subsampling                       : 4:2:0
Bit depth                                : 8 bits
Scan type                                : Progressive
Compression mode                         : Lossy
Bits/(Pixel*Frame)                       : 0.201
Stream size                              : 599 MiB (86%)
Writing library                          : XviD 64

Audio
ID                                       : 1
Format                                   : MPEG Audio
Format version                           : Version 1
Format profile                           : Layer 3
Mode                                     : Joint stereo
Mode extension                           : MS Stereo
Codec ID                                 : 55
Codec ID/Hint                            : MP3
Duration                                 : 1h 51mn
Bit rate mode                            : Variable
Bit rate                                 : 114 Kbps
Nominal bit rate                         : 128 Kbps
Channel(s)                               : 2 channels
Sampling rate                            : 48.0 KHz
Compression mode                         : Lossy
Stream size                              : 91.3 MiB (13%)
Alignment                                : Aligned on interleaves
Interleave, duration                     : 24 ms (0.58 video frame)
Interleave, preload duration             : 161 ms
Writing library                          : LAME3.98r



 
http://www.imdb.com/title/tt1650062/ 
http://www.moviemeter.nl/film/70202




Deze film wordt u aangeboden door het DutchReleaseTeam.
Voor de reviews van de nieuwste films, muziek, series, games etc
ga dan eens naar http://www.hetmultimediacafe.be

DutchReleaseteam = Hardcoded Dutch Subs